<svg width="375" height="1296" viewBox="0 0 375 1296" fill="none" xmlns="http://www.w3.org/2000/svg">
<g opacity="0.05">
<path d="M34 0.0998535V1508.1" stroke="white"/>
<path d="M111 0.0998535V1508.1" stroke="white"/>
<path d="M188 0.0998535V1508.1" stroke="white"/>
<path d="M265 0.0998535V1508.1" stroke="white"/>
<path d="M342 0.0998535V1508.1" stroke="white"/>
<path d="M-197 215.528L571 215.529" stroke="white"/>
<path d="M-197 0.0998535L571 0.0999207" stroke="white"/>
<path d="M-197 430.957L571 430.957" stroke="white"/>
<path d="M-197 646.386L571 646.386" stroke="white"/>
<path d="M-197 861.814L571 861.814" stroke="white"/>
<path d="M-197 1077.24L571 1077.24" stroke="white"/>
<path d="M-197 1292.67L571 1292.67" stroke="white"/>
</g>
</svg>
<svg width="375" height="1296" viewBox="0 0 375 1296" fill="none" xmlns="http://www.w3.org/2000/svg">
<g opacity="0.05">
<path d="M34 0.0998535V1508.1" stroke="white"/>
<path d="M111 0.0998535V1508.1" stroke="white"/>
<path d="M188 0.0998535V1508.1" stroke="white"/>
<path d="M265 0.0998535V1508.1" stroke="white"/>
<path d="M342 0.0998535V1508.1" stroke="white"/>
<path d="M-197 215.528L571 215.529" stroke="white"/>
<path d="M-197 0.0998535L571 0.0999207" stroke="white"/>
<path d="M-197 430.957L571 430.957" stroke="white"/>
<path d="M-197 646.386L571 646.386" stroke="white"/>
<path d="M-197 861.814L571 861.814" stroke="white"/>
<path d="M-197 1077.24L571 1077.24" stroke="white"/>
<path d="M-197 1292.67L571 1292.67" stroke="white"/>
</g>
</svg>
